<svg xmlns="http://www.w3.org/2000/svg" xmlns:xlink="http://www.w3.org/1999/xlink" width="50" zoomAndPan="magnify" viewBox="0 0 37.5 37.499999" height="50" preserveAspectRatio="xMidYMid meet" version="1.0"><defs><clipPath id="b88a2cbf67"><path d="M 10.054688 11.25 L 27 11.25 L 27 26.25 L 10.054688 26.25 Z M 10.054688 11.25 " clip-rule="nonzero"/></clipPath></defs><g clip-path="url(#b88a2cbf67)"><path fill="#d4e80e" d="M 22.058594 11.25 C 21.425781 11.25 20.816406 11.371094 20.234375 11.617188 C 19.652344 11.863281 19.140625 12.214844 18.695312 12.671875 C 18.476562 12.445312 18.238281 12.246094 17.980469 12.066406 C 17.71875 11.890625 17.445312 11.742188 17.15625 11.621094 C 16.867188 11.496094 16.570312 11.40625 16.261719 11.34375 C 15.957031 11.28125 15.648438 11.25 15.332031 11.25 C 15.019531 11.25 14.710938 11.28125 14.402344 11.34375 C 14.097656 11.40625 13.800781 11.496094 13.511719 11.621094 C 13.222656 11.742188 12.949219 11.890625 12.6875 12.066406 C 12.429688 12.246094 12.191406 12.445312 11.972656 12.671875 C 11.75 12.898438 11.554688 13.144531 11.382812 13.410156 C 11.207031 13.675781 11.0625 13.953125 10.945312 14.246094 C 10.824219 14.542969 10.734375 14.84375 10.675781 15.15625 C 10.613281 15.46875 10.582031 15.78125 10.582031 16.097656 C 10.582031 16.417969 10.613281 16.730469 10.675781 17.042969 C 10.734375 17.355469 10.824219 17.65625 10.945312 17.949219 C 11.0625 18.242188 11.207031 18.523438 11.382812 18.789062 C 11.554688 19.054688 11.75 19.300781 11.972656 19.527344 L 18.457031 26.148438 C 18.523438 26.214844 18.601562 26.25 18.695312 26.25 C 18.789062 26.25 18.871094 26.214844 18.9375 26.148438 L 25.421875 19.527344 C 25.640625 19.300781 25.839844 19.054688 26.011719 18.789062 C 26.183594 18.523438 26.328125 18.246094 26.449219 17.949219 C 26.566406 17.65625 26.65625 17.355469 26.71875 17.042969 C 26.777344 16.730469 26.808594 16.417969 26.808594 16.097656 C 26.808594 15.78125 26.777344 15.46875 26.71875 15.15625 C 26.65625 14.84375 26.566406 14.542969 26.449219 14.25 C 26.328125 13.953125 26.183594 13.675781 26.011719 13.410156 C 25.839844 13.144531 25.640625 12.898438 25.421875 12.671875 C 24.980469 12.214844 24.464844 11.863281 23.882812 11.617188 C 23.296875 11.371094 22.691406 11.25 22.058594 11.25 Z M 24.941406 19.046875 L 18.695312 25.425781 L 12.453125 19.050781 C 12.261719 18.855469 12.09375 18.640625 11.945312 18.414062 C 11.796875 18.1875 11.671875 17.945312 11.570312 17.691406 C 11.464844 17.441406 11.390625 17.179688 11.335938 16.910156 C 11.285156 16.644531 11.257812 16.375 11.257812 16.101562 C 11.257812 15.828125 11.285156 15.554688 11.335938 15.289062 C 11.390625 15.019531 11.464844 14.761719 11.570312 14.507812 C 11.671875 14.253906 11.796875 14.015625 11.945312 13.785156 C 12.09375 13.558594 12.261719 13.347656 12.453125 13.152344 C 12.640625 12.957031 12.84375 12.785156 13.066406 12.632812 C 13.289062 12.480469 13.523438 12.355469 13.773438 12.25 C 14.019531 12.144531 14.273438 12.066406 14.539062 12.011719 C 14.800781 11.957031 15.066406 11.933594 15.335938 11.933594 C 15.601562 11.933594 15.867188 11.957031 16.132812 12.011719 C 16.394531 12.066406 16.648438 12.144531 16.894531 12.25 C 17.144531 12.355469 17.378906 12.480469 17.601562 12.632812 C 17.824219 12.785156 18.027344 12.957031 18.214844 13.152344 L 18.457031 13.394531 C 18.523438 13.464844 18.601562 13.496094 18.695312 13.496094 C 18.789062 13.496094 18.871094 13.464844 18.9375 13.394531 L 19.175781 13.152344 C 19.363281 12.957031 19.570312 12.785156 19.792969 12.632812 C 20.015625 12.480469 20.25 12.355469 20.496094 12.25 C 20.742188 12.144531 21 12.066406 21.261719 12.011719 C 21.523438 11.957031 21.789062 11.933594 22.058594 11.933594 C 22.328125 11.933594 22.59375 11.957031 22.855469 12.011719 C 23.117188 12.066406 23.375 12.144531 23.621094 12.25 C 23.867188 12.355469 24.101562 12.480469 24.324219 12.632812 C 24.546875 12.785156 24.753906 12.957031 24.941406 13.152344 C 25.128906 13.347656 25.296875 13.558594 25.445312 13.785156 C 25.597656 14.015625 25.722656 14.253906 25.824219 14.507812 C 25.925781 14.761719 26.003906 15.019531 26.054688 15.289062 C 26.109375 15.554688 26.132812 15.828125 26.132812 16.101562 C 26.132812 16.371094 26.109375 16.644531 26.054688 16.910156 C 26.003906 17.179688 25.925781 17.4375 25.824219 17.691406 C 25.722656 17.945312 25.597656 18.183594 25.445312 18.414062 C 25.296875 18.640625 25.128906 18.851562 24.941406 19.046875 Z M 24.941406 19.046875 " fill-opacity="1" fill-rule="nonzero"/></g></svg>