<svg xmlns="http://www.w3.org/2000/svg" xmlns:xlink="http://www.w3.org/1999/xlink" width="50" zoomAndPan="magnify" viewBox="0 0 37.5 37.499999" height="50" preserveAspectRatio="xMidYMid meet" version="1.0"><defs><clipPath id="0bb4e3d69d"><path d="M 1 3.75 L 37 3.75 L 37 36 L 1 36 Z M 1 3.75 " clip-rule="nonzero"/></clipPath></defs><g clip-path="url(#0bb4e3d69d)"><path fill="#d4e80e" d="M 26.09375 3.75 C 24.71875 3.746094 23.398438 4.011719 22.132812 4.542969 C 20.863281 5.070312 19.75 5.828125 18.785156 6.804688 C 18.308594 6.320312 17.789062 5.890625 17.226562 5.507812 C 16.664062 5.128906 16.066406 4.804688 15.441406 4.542969 C 14.8125 4.28125 14.164062 4.082031 13.5 3.949219 C 12.832031 3.816406 12.15625 3.75 11.476562 3.75 C 10.796875 3.75 10.125 3.816406 9.457031 3.949219 C 8.789062 4.082031 8.140625 4.28125 7.515625 4.542969 C 6.886719 4.804688 6.292969 5.128906 5.726562 5.507812 C 5.164062 5.890625 4.644531 6.320312 4.167969 6.804688 C 3.6875 7.292969 3.261719 7.820312 2.886719 8.390625 C 2.511719 8.960938 2.191406 9.5625 1.933594 10.195312 C 1.675781 10.828125 1.480469 11.476562 1.347656 12.148438 C 1.214844 12.816406 1.148438 13.492188 1.148438 14.175781 C 1.148438 14.859375 1.214844 15.535156 1.347656 16.203125 C 1.480469 16.871094 1.675781 17.523438 1.933594 18.15625 C 2.191406 18.785156 2.511719 19.386719 2.886719 19.957031 C 3.261719 20.527344 3.6875 21.058594 4.167969 21.542969 L 18.265625 35.78125 C 18.40625 35.925781 18.582031 35.996094 18.785156 35.996094 C 18.992188 35.996094 19.164062 35.925781 19.308594 35.78125 L 33.40625 21.546875 C 33.882812 21.058594 34.3125 20.53125 34.6875 19.960938 C 35.0625 19.390625 35.382812 18.789062 35.640625 18.15625 C 35.898438 17.523438 36.09375 16.875 36.226562 16.203125 C 36.355469 15.535156 36.421875 14.859375 36.421875 14.175781 C 36.421875 13.496094 36.355469 12.816406 36.226562 12.148438 C 36.09375 11.480469 35.898438 10.828125 35.640625 10.195312 C 35.382812 9.566406 35.0625 8.964844 34.6875 8.394531 C 34.3125 7.824219 33.882812 7.292969 33.40625 6.808594 C 32.445312 5.828125 31.328125 5.070312 30.058594 4.542969 C 28.792969 4.011719 27.46875 3.746094 26.09375 3.75 Z M 32.359375 20.515625 L 18.785156 34.222656 L 5.214844 20.519531 C 4.800781 20.097656 4.433594 19.644531 4.109375 19.152344 C 3.789062 18.664062 3.515625 18.144531 3.292969 17.601562 C 3.070312 17.058594 2.902344 16.5 2.789062 15.921875 C 2.675781 15.347656 2.617188 14.765625 2.617188 14.179688 C 2.617188 13.589844 2.675781 13.007812 2.789062 12.433594 C 2.902344 11.855469 3.070312 11.296875 3.292969 10.753906 C 3.515625 10.210938 3.789062 9.691406 4.109375 9.203125 C 4.433594 8.710938 4.800781 8.257812 5.214844 7.835938 C 5.621094 7.421875 6.066406 7.050781 6.550781 6.726562 C 7.035156 6.398438 7.542969 6.125 8.082031 5.898438 C 8.617188 5.671875 9.171875 5.503906 9.746094 5.390625 C 10.316406 5.273438 10.894531 5.214844 11.476562 5.214844 C 12.0625 5.214844 12.636719 5.273438 13.210938 5.390625 C 13.78125 5.503906 14.335938 5.671875 14.875 5.898438 C 15.410156 6.125 15.921875 6.398438 16.40625 6.726562 C 16.886719 7.050781 17.332031 7.421875 17.742188 7.835938 L 18.261719 8.363281 C 18.40625 8.511719 18.582031 8.582031 18.785156 8.582031 C 18.992188 8.582031 19.164062 8.511719 19.308594 8.363281 L 19.832031 7.835938 C 20.242188 7.421875 20.6875 7.050781 21.167969 6.726562 C 21.652344 6.398438 22.160156 6.125 22.699219 5.898438 C 23.238281 5.671875 23.792969 5.503906 24.363281 5.390625 C 24.933594 5.273438 25.511719 5.214844 26.09375 5.214844 C 26.679688 5.214844 27.257812 5.273438 27.828125 5.390625 C 28.398438 5.503906 28.953125 5.671875 29.492188 5.898438 C 30.03125 6.125 30.539062 6.398438 31.023438 6.726562 C 31.503906 7.050781 31.949219 7.421875 32.359375 7.835938 C 32.769531 8.257812 33.140625 8.710938 33.460938 9.203125 C 33.785156 9.691406 34.058594 10.210938 34.28125 10.753906 C 34.503906 11.296875 34.671875 11.855469 34.785156 12.433594 C 34.898438 13.007812 34.953125 13.589844 34.953125 14.175781 C 34.953125 14.765625 34.898438 15.34375 34.785156 15.921875 C 34.671875 16.496094 34.503906 17.058594 34.28125 17.601562 C 34.058594 18.144531 33.785156 18.660156 33.460938 19.152344 C 33.140625 19.640625 32.769531 20.097656 32.359375 20.515625 Z M 32.359375 20.515625 " fill-opacity="1" fill-rule="nonzero"/></g></svg>