<svg xmlns="http://www.w3.org/2000/svg" xmlns:xlink="http://www.w3.org/1999/xlink" width="50" zoomAndPan="magnify" viewBox="0 0 37.5 37.499999" height="50" preserveAspectRatio="xMidYMid meet" version="1.0"><defs><clipPath id="ba53e6713b"><path d="M 0 0 L 37.007812 0 L 37.007812 37.007812 L 0 37.007812 Z M 0 0 " clip-rule="nonzero"/></clipPath></defs><g clip-path="url(#ba53e6713b)"><path fill="#1e2630" d="M 18.75 0 C 8.414062 0 0 8.414062 0 18.75 C 0 29.085938 8.414062 37.5 18.75 37.5 C 29.085938 37.5 37.5 29.085938 37.5 18.75 C 37.5 8.414062 29.085938 0 18.75 0 Z M 27.058594 27.320312 C 27.058594 27.605469 26.828125 27.839844 26.539062 27.839844 L 10.90625 27.839844 C 10.621094 27.839844 10.386719 27.605469 10.386719 27.320312 L 10.386719 26.722656 C 10.386719 25.683594 11.21875 24.851562 12.257812 24.851562 L 25.191406 24.851562 C 26.230469 24.851562 27.058594 25.683594 27.058594 26.722656 Z M 27.136719 15.425781 L 19.085938 23.292969 C 18.984375 23.398438 18.855469 23.449219 18.722656 23.449219 C 18.59375 23.449219 18.464844 23.398438 18.359375 23.292969 L 10.308594 15.425781 C 10.152344 15.269531 10.101562 15.0625 10.179688 14.855469 C 10.257812 14.648438 10.441406 14.542969 10.671875 14.542969 L 14.699219 14.542969 L 14.699219 10.128906 C 14.699219 8.933594 15.6875 7.945312 16.878906 7.945312 L 20.464844 7.945312 C 21.660156 7.945312 22.644531 8.933594 22.644531 10.128906 L 22.644531 14.542969 L 26.773438 14.542969 C 26.980469 14.542969 27.164062 14.671875 27.269531 14.855469 C 27.371094 15.035156 27.292969 15.296875 27.136719 15.425781 Z M 27.136719 15.425781 " fill-opacity="1" fill-rule="nonzero"/></g></svg>